<svg width="231" height="48" viewBox="0 0 231 48" fill="none" xmlns="http://www.w3.org/2000/svg">
<path d="M23 12.6316C23 5.65535 28.6553 0 35.6316 0H58.3684C65.3446 0 71 5.65535 71 12.6316V35.3684C71 42.3446 65.3446 48 58.3684 48H35.6316C28.6553 48 23 42.3446 23 35.3684V12.6316Z" fill="url(#paint0_linear_230_207)"/>
<path d="M52.7155 20.6412L49.4173 23.9393L49.4075 23.9295L47.1077 26.2293L47.0978 26.2391L43.739 29.5979C40.6474 32.6896 35.6348 32.6896 32.5432 29.5979C29.4514 26.5062 29.4514 21.4937 32.5432 18.4021C35.6348 15.3104 40.6474 15.3104 43.739 18.4021L44.8685 19.5316L42.6294 21.7708L41.4998 20.6412C39.6449 18.7862 36.6374 18.7862 34.7824 20.6412C32.9273 22.4963 32.9273 25.5037 34.7824 27.3587C36.6374 29.2137 39.6449 29.2137 41.4998 27.3587L44.781 24.0777L44.7909 24.0877L50.4763 18.4021C53.568 15.3104 58.5805 15.3104 61.6722 18.4021C64.7638 21.4937 64.7638 26.5062 61.6722 29.5979C58.5805 32.6896 53.568 32.6896 50.4763 29.5979L49.347 28.4685L51.5861 26.2293L52.7155 27.3587C54.5705 29.2137 57.578 29.2137 59.433 27.3587C61.288 25.5037 61.288 22.4963 59.433 20.6412C57.578 18.7862 54.5705 18.7862 52.7155 20.6412Z" fill="url(#paint1_linear_230_207)"/>
<path d="M207.01 27.0227C207.01 29.101 206.367 30.8206 205.08 32.1814C203.794 33.5423 202.26 34.2227 200.478 34.2227C198.722 34.2227 197.15 33.4557 195.765 31.9216V34H192.87V14.7381H195.765V22.6062C196.928 20.8495 198.425 19.9711 200.256 19.9711C202.161 19.9711 203.757 20.6268 205.043 21.9381C206.355 23.2495 207.01 24.9443 207.01 27.0227ZM199.81 31.6247C200.998 31.6247 202 31.2041 202.816 30.3629C203.658 29.4969 204.078 28.4082 204.078 27.0969C204.078 25.7856 203.658 24.6969 202.816 23.8309C202 22.9649 201.01 22.5319 199.847 22.5319C198.684 22.5319 197.707 22.9773 196.915 23.868C196.124 24.734 195.728 25.8103 195.728 27.0969C195.728 28.4082 196.124 29.4969 196.915 30.3629C197.707 31.2041 198.672 31.6247 199.81 31.6247Z" fill="white"/>
<path d="M189.863 34H187.228V32.1443C186.065 33.5299 184.531 34.2227 182.626 34.2227C181.166 34.2227 179.966 33.8144 179.026 32.9979C178.111 32.1567 177.653 31.068 177.653 29.732C177.653 28.3959 178.148 27.3814 179.138 26.6887C180.127 25.9959 181.488 25.6495 183.22 25.6495H187.006V25.1299C187.006 23.299 185.979 22.3835 183.925 22.3835C182.639 22.3835 181.303 22.8536 179.917 23.7938L178.618 21.9753C180.325 20.6392 182.23 19.9711 184.333 19.9711C186.041 19.9711 187.389 20.4041 188.379 21.2701C189.368 22.1113 189.863 23.3856 189.863 25.0928V34ZM186.968 27.6907H183.702C181.599 27.6907 180.548 28.3464 180.548 29.6577C180.548 30.3258 180.808 30.8454 181.327 31.2165C181.847 31.5629 182.577 31.7361 183.517 31.7361C184.482 31.7361 185.298 31.4763 185.966 30.9567C186.634 30.4124 186.968 29.7072 186.968 28.8412V27.6907Z" fill="white"/>
<path d="M165.485 34V15.8515H168.566V31.1051H176.842V34H165.485Z" fill="white"/>
<path d="M158.471 32.2557C158.471 31.7113 158.657 31.2536 159.028 30.8825C159.399 30.5113 159.857 30.3258 160.401 30.3258C160.946 30.3258 161.403 30.5113 161.774 30.8825C162.17 31.2536 162.368 31.7113 162.368 32.2557C162.368 32.8 162.17 33.2701 161.774 33.666C161.403 34.0371 160.946 34.2227 160.401 34.2227C159.832 34.2227 159.387 34.0247 159.065 33.6289C158.669 33.2577 158.471 32.8 158.471 32.2557Z" fill="white"/>
<path d="M147.737 34H144.842V14.7381H147.737V26.0577L153.341 20.1938H157.09L151.857 25.6495L157.498 34H153.935L149.853 27.9505L147.737 30.066V34Z" fill="white"/>
<path d="M135.359 31.6247C136.62 31.6247 137.66 31.2041 138.476 30.3629C139.317 29.5216 139.738 28.433 139.738 27.0969C139.738 25.7608 139.317 24.6722 138.476 23.8309C137.66 22.9897 136.62 22.5691 135.359 22.5691C134.097 22.5691 133.058 22.9897 132.241 23.8309C131.425 24.6722 131.016 25.7608 131.016 27.0969C131.016 28.433 131.425 29.5093 132.241 30.3258C133.058 31.1917 134.097 31.6247 135.359 31.6247ZM135.359 34.2227C133.28 34.2227 131.548 33.5423 130.163 32.1814C128.777 30.7959 128.084 29.101 128.084 27.0969C128.084 25.0928 128.777 23.4103 130.163 22.0495C131.548 20.6639 133.28 19.9711 135.359 19.9711C137.437 19.9711 139.169 20.6639 140.554 22.0495C141.94 23.4103 142.633 25.0928 142.633 27.0969C142.633 29.0268 141.94 30.7093 140.554 32.1443C139.169 33.5299 137.437 34.2227 135.359 34.2227Z" fill="white"/>
<path d="M122.792 22.5319V29.5464C122.792 30.2144 122.965 30.7464 123.311 31.1423C123.682 31.5134 124.177 31.699 124.796 31.699C125.365 31.699 125.959 31.3897 126.577 30.7711L127.765 32.8495C126.726 33.7649 125.6 34.2227 124.388 34.2227C123.126 34.2227 122.062 33.7897 121.196 32.9237C120.33 32.033 119.897 30.8825 119.897 29.4722V22.5319H118.153V20.1938H119.897V15.8515H122.792V20.1938H126.429V22.5319H122.792Z" fill="white"/>
<path d="M109.745 31.6247C111.007 31.6247 112.046 31.2041 112.863 30.3629C113.704 29.5216 114.124 28.433 114.124 27.0969C114.124 25.7608 113.704 24.6722 112.863 23.8309C112.046 22.9897 111.007 22.5691 109.745 22.5691C108.483 22.5691 107.444 22.9897 106.628 23.8309C105.811 24.6722 105.403 25.7608 105.403 27.0969C105.403 28.433 105.811 29.5093 106.628 30.3258C107.444 31.1917 108.483 31.6247 109.745 31.6247ZM109.745 34.2227C107.667 34.2227 105.935 33.5423 104.549 32.1814C103.164 30.7959 102.471 29.101 102.471 27.0969C102.471 25.0928 103.164 23.4103 104.549 22.0495C105.935 20.6639 107.667 19.9711 109.745 19.9711C111.823 19.9711 113.555 20.6639 114.941 22.0495C116.327 23.4103 117.019 25.0928 117.019 27.0969C117.019 29.0268 116.327 30.7093 114.941 32.1443C113.555 33.5299 111.823 34.2227 109.745 34.2227Z" fill="white"/>
<path d="M93.333 15.8515C96.0546 15.8515 98.0464 16.3835 99.3082 17.4474C100.595 18.4866 101.238 20.1072 101.238 22.3093C101.238 24.4866 100.595 26.0948 99.3082 27.134C98.0216 28.1484 96.0422 28.6557 93.3701 28.6557H90.1783V34H87.0979V15.8515H93.333ZM93.7041 25.9093C95.3371 25.9093 96.4752 25.6 97.1185 24.9814C97.7866 24.3629 98.1206 23.3856 98.1206 22.0495C98.1206 20.8124 97.7371 19.934 96.9701 19.4144C96.2031 18.8948 94.9659 18.635 93.2587 18.635H90.1783V25.9093H93.7041Z" fill="white"/>
<defs>
<linearGradient id="paint0_linear_230_207" x1="23" y1="47.2105" x2="71" y2="0.789494" gradientUnits="userSpaceOnUse">
<stop stop-color="#465FFF"/>
<stop offset="1" stop-color="#3FD4EE"/>
</linearGradient>
<linearGradient id="paint1_linear_230_207" x1="30.2244" y1="23.9566" x2="63.9909" y2="24.0434" gradientUnits="userSpaceOnUse">
<stop stop-color="white"/>
<stop offset="0.867058" stop-color="white" stop-opacity="0.78"/>
</linearGradient>
</defs>
</svg>
