<svg width="154" height="32" viewBox="0 0 154 32" fill="none" xmlns="http://www.w3.org/2000/svg">
<path d="M0 8.42107C0 3.77023 3.77023 0 8.42108 0H23.5789C28.2297 0 32 3.77023 32 8.42107V23.5789C32 28.2297 28.2297 32 23.5789 32H8.42108C3.77023 32 0 28.2297 0 23.5789V8.42107Z" fill="url(#paint0_linear_248_120)"/>
<path d="M19.6537 13.8787L17.5048 15.9617L17.4984 15.9555L16 17.408L15.9936 17.4142L13.8052 19.5355C11.7909 21.4882 8.52509 21.4882 6.5108 19.5355C4.4964 17.5829 4.4964 14.4171 6.5108 12.4645C8.52509 10.5118 11.7909 10.5118 13.8052 12.4645L14.5411 13.1779L13.0823 14.5921L12.3463 13.8787C11.1378 12.7071 9.17829 12.7071 7.96968 13.8787C6.76106 15.0503 6.76106 16.9497 7.96968 18.1213C9.17829 19.2929 11.1378 19.2929 12.3463 18.1213L14.4841 16.0491L14.4906 16.0554L18.1948 12.4645C20.2091 10.5118 23.475 10.5118 25.4893 12.4645C27.5036 14.4171 27.5036 17.5829 25.4893 19.5355C23.475 21.4882 20.2091 21.4882 18.1948 19.5355L17.459 18.8222L18.9178 17.408L19.6537 18.1213C20.8623 19.2929 22.8218 19.2929 24.0304 18.1213C25.239 16.9497 25.239 15.0503 24.0304 13.8787C22.8218 12.7071 20.8623 12.7071 19.6537 13.8787Z" fill="url(#paint1_linear_248_120)"/>
<path d="M152.832 18.7979C152.832 20.6454 152.26 22.1739 151.117 23.3835C149.973 24.5931 148.609 25.1979 147.026 25.1979C145.464 25.1979 144.068 24.5162 142.836 23.1526V25H140.263V7.87836H142.836V14.8722C143.87 13.3107 145.2 12.5299 146.828 12.5299C148.521 12.5299 149.94 13.1127 151.084 14.2784C152.249 15.444 152.832 16.9505 152.832 18.7979ZM146.432 22.8887C147.488 22.8887 148.378 22.5148 149.104 21.767C149.852 20.9973 150.226 20.0296 150.226 18.8639C150.226 17.6983 149.852 16.7306 149.104 15.9608C148.378 15.1911 147.499 14.8062 146.465 14.8062C145.431 14.8062 144.563 15.2021 143.859 15.9938C143.155 16.7636 142.803 17.7203 142.803 18.8639C142.803 20.0296 143.155 20.9973 143.859 21.767C144.563 22.5148 145.42 22.8887 146.432 22.8887Z" fill="white"/>
<path d="M137.59 25H135.248V23.3505C134.214 24.5821 132.851 25.1979 131.157 25.1979C129.86 25.1979 128.793 24.8351 127.957 24.1093C127.144 23.3615 126.737 22.3938 126.737 21.2062C126.737 20.0186 127.177 19.1168 128.056 18.501C128.936 17.8852 130.146 17.5773 131.685 17.5773H135.05V17.1155C135.05 15.488 134.137 14.6742 132.312 14.6742C131.168 14.6742 129.981 15.0921 128.749 15.9278L127.594 14.3113C129.112 13.1237 130.805 12.5299 132.675 12.5299C134.192 12.5299 135.391 12.9148 136.271 13.6845C137.15 14.4323 137.59 15.565 137.59 17.0825V25ZM135.017 19.3918H132.114C130.245 19.3918 129.31 19.9746 129.31 21.1402C129.31 21.734 129.541 22.1959 130.003 22.5258C130.465 22.8337 131.113 22.9876 131.949 22.9876C132.807 22.9876 133.533 22.7567 134.126 22.2949C134.72 21.811 135.017 21.1842 135.017 20.4144V19.3918Z" fill="white"/>
<path d="M115.921 25V8.86804H118.659V22.4268H126.016V25H115.921Z" fill="white"/>
<path d="M109.686 23.4495C109.686 22.9656 109.851 22.5588 110.181 22.2289C110.511 21.899 110.918 21.734 111.402 21.734C111.886 21.734 112.292 21.899 112.622 22.2289C112.974 22.5588 113.15 22.9656 113.15 23.4495C113.15 23.9333 112.974 24.3512 112.622 24.7031C112.292 25.033 111.886 25.1979 111.402 25.1979C110.896 25.1979 110.5 25.022 110.214 24.6701C109.862 24.3402 109.686 23.9333 109.686 23.4495Z" fill="white"/>
<path d="M100.145 25H97.5717V7.87836H100.145V17.9402L105.126 12.7278H108.458L103.807 17.5773L108.821 25H105.654L102.025 19.6227L100.145 21.5031V25Z" fill="white"/>
<path d="M89.1416 22.8887C90.2633 22.8887 91.187 22.5148 91.9128 21.767C92.6605 21.0193 93.0344 20.0516 93.0344 18.8639C93.0344 17.6763 92.6605 16.7086 91.9128 15.9608C91.187 15.2131 90.2633 14.8392 89.1416 14.8392C88.02 14.8392 87.0963 15.2131 86.3705 15.9608C85.6447 16.7086 85.2818 17.6763 85.2818 18.8639C85.2818 20.0516 85.6447 21.0083 86.3705 21.734C87.0963 22.5038 88.02 22.8887 89.1416 22.8887ZM89.1416 25.1979C87.2942 25.1979 85.7547 24.5931 84.5231 23.3835C83.2915 22.1519 82.6757 20.6454 82.6757 18.8639C82.6757 17.0825 83.2915 15.587 84.5231 14.3773C85.7547 13.1457 87.2942 12.5299 89.1416 12.5299C90.9891 12.5299 92.5286 13.1457 93.7602 14.3773C94.9918 15.587 95.6076 17.0825 95.6076 18.8639C95.6076 20.5794 94.9918 22.0749 93.7602 23.3505C92.5286 24.5821 90.9891 25.1979 89.1416 25.1979Z" fill="white"/>
<path d="M77.9712 14.8062V21.0412C77.9712 21.6351 78.1251 22.1079 78.433 22.4598C78.7629 22.7897 79.2028 22.9546 79.7526 22.9546C80.2585 22.9546 80.7863 22.6797 81.3361 22.1299L82.3918 23.9773C81.4681 24.7911 80.4674 25.1979 79.3897 25.1979C78.2681 25.1979 77.3224 24.8131 76.5526 24.0433C75.7829 23.2515 75.398 22.2289 75.398 20.9753V14.8062H73.8475V12.7278H75.398V8.86804H77.9712V12.7278H81.2042V14.8062H77.9712Z" fill="white"/>
<path d="M66.3741 22.8887C67.4958 22.8887 68.4195 22.5148 69.1453 21.767C69.893 21.0193 70.2669 20.0516 70.2669 18.8639C70.2669 17.6763 69.893 16.7086 69.1453 15.9608C68.4195 15.2131 67.4958 14.8392 66.3741 14.8392C65.2525 14.8392 64.3288 15.2131 63.603 15.9608C62.8772 16.7086 62.5143 17.6763 62.5143 18.8639C62.5143 20.0516 62.8772 21.0083 63.603 21.734C64.3288 22.5038 65.2525 22.8887 66.3741 22.8887ZM66.3741 25.1979C64.5267 25.1979 62.9872 24.5931 61.7556 23.3835C60.5239 22.1519 59.9081 20.6454 59.9081 18.8639C59.9081 17.0825 60.5239 15.587 61.7556 14.3773C62.9872 13.1457 64.5267 12.5299 66.3741 12.5299C68.2215 12.5299 69.7611 13.1457 70.9927 14.3773C72.2243 15.587 72.8401 17.0825 72.8401 18.8639C72.8401 20.5794 72.2243 22.0749 70.9927 23.3505C69.7611 24.5821 68.2215 25.1979 66.3741 25.1979Z" fill="white"/>
<path d="M51.7856 8.86804C54.2048 8.86804 55.9752 9.34089 57.0969 10.2866C58.2405 11.2103 58.8124 12.6509 58.8124 14.6082C58.8124 16.5436 58.2405 17.9732 57.0969 18.8969C55.9533 19.7986 54.1938 20.2495 51.8185 20.2495H48.9814V25H46.2433V8.86804H51.7856ZM52.1155 17.8082C53.567 17.8082 54.5787 17.5333 55.1505 16.9835C55.7443 16.4337 56.0412 15.565 56.0412 14.3773C56.0412 13.2777 55.7003 12.4969 55.0185 12.0351C54.3368 11.5732 53.2371 11.3423 51.7196 11.3423H48.9814V17.8082H52.1155Z" fill="white"/>
<defs>
<linearGradient id="paint0_linear_248_120" x1="6.48012e-07" y1="31.4737" x2="32" y2="0.526342" gradientUnits="userSpaceOnUse">
<stop stop-color="#465FFF"/>
<stop offset="1" stop-color="#3FD4EE"/>
</linearGradient>
<linearGradient id="paint1_linear_248_120" x1="5" y1="15.9726" x2="27" y2="16.031" gradientUnits="userSpaceOnUse">
<stop stop-color="white"/>
<stop offset="0.867058" stop-color="white" stop-opacity="0.78"/>
</linearGradient>
</defs>
</svg>
