<svg width="32" height="32" viewBox="0 0 32 32" fill="none" xmlns="http://www.w3.org/2000/svg">
<g clip-path="url(#clip0_230_260)">
<path d="M0 8.42107C0 3.77023 3.77023 0 8.42108 0H23.5789C28.2297 0 32 3.77023 32 8.42107V23.5789C32 28.2297 28.2297 32 23.5789 32H8.42108C3.77023 32 0 28.2297 0 23.5789V8.42107Z" fill="url(#paint0_linear_230_260)"/>
<path d="M19.6537 13.8787L17.5048 15.9617L17.4984 15.9555L16 17.408L15.9936 17.4142L13.8052 19.5355C11.7909 21.4882 8.52509 21.4882 6.5108 19.5355C4.4964 17.5829 4.4964 14.4171 6.5108 12.4645C8.52509 10.5118 11.7909 10.5118 13.8052 12.4645L14.5411 13.1779L13.0823 14.5921L12.3463 13.8787C11.1378 12.7071 9.17829 12.7071 7.96968 13.8787C6.76106 15.0503 6.76106 16.9497 7.96968 18.1213C9.17829 19.2929 11.1378 19.2929 12.3463 18.1213L14.4841 16.0491L14.4906 16.0554L18.1948 12.4645C20.2091 10.5118 23.475 10.5118 25.4893 12.4645C27.5036 14.4171 27.5036 17.5829 25.4893 19.5355C23.475 21.4882 20.2091 21.4882 18.1948 19.5355L17.459 18.8222L18.9178 17.408L19.6537 18.1213C20.8623 19.2929 22.8218 19.2929 24.0304 18.1213C25.239 16.9497 25.239 15.0503 24.0304 13.8787C22.8218 12.7071 20.8623 12.7071 19.6537 13.8787Z" fill="url(#paint1_linear_230_260)"/>
</g>
<defs>
<linearGradient id="paint0_linear_230_260" x1="9.49715e-07" y1="31.4737" x2="32" y2="0.526342" gradientUnits="userSpaceOnUse">
<stop stop-color="#465FFF"/>
<stop offset="1" stop-color="#3FD4EE"/>
</linearGradient>
<linearGradient id="paint1_linear_230_260" x1="5" y1="15.9726" x2="27" y2="16.031" gradientUnits="userSpaceOnUse">
<stop stop-color="white"/>
<stop offset="0.867058" stop-color="white" stop-opacity="0.78"/>
</linearGradient>
<clipPath id="clip0_230_260">
<rect width="32" height="32" fill="white"/>
</clipPath>
</defs>
</svg>
